<svg width="468" height="69" viewBox="0 0 468 69" fill="none" xmlns="http://www.w3.org/2000/svg">
<path d="M90.0784 57.7908C83.1005 57.7908 77.8228 56.2047 77.8228 56.2047V44.8277H83.2737V50.7517L84.3318 51.8055C85.9157 52.1012 87.8482 52.2744 90.0784 52.2744C94.8873 52.2744 96.353 50.0442 96.353 46.8171C96.353 43.4127 95.0035 42.0695 90.1418 40.722C81.7531 38.4369 77.9431 35.4401 77.9431 27.6427C77.9431 19.6701 84.393 15.5582 93.3076 15.5582C99.5864 15.5582 104.389 17.0872 104.389 17.0872V27.9363H98.938V22.4811L97.9349 21.4843C96.5853 21.2499 95.0626 21.0788 93.3012 21.0788C89.1428 21.0788 86.7331 23.0133 86.7331 26.0039C86.7331 29.0535 87.3772 30.4559 93.768 32.213C101.455 34.3249 105.789 37.495 105.789 44.5911C105.791 53.6261 99.4048 57.7908 90.0784 57.7908Z" fill="#828282"/>
<path d="M133.941 43.1909H118.401C118.699 49.7507 121.1 52.1583 126.786 52.1583C129.89 52.1583 132.359 51.2206 133.297 50.9333V55.624C131.776 56.6757 128.781 57.7908 123.74 57.7908C116.173 57.7908 109.43 53.3325 109.43 42.3081C109.43 30.9332 115.529 25.5414 122.855 25.5414C129.954 25.5414 134.995 30.3482 134.995 38.1497V42.135L133.941 43.1909ZM118.462 39.0874H126.551V37.5605C126.551 33.043 125.616 30.8741 122.917 30.8741C120.16 30.8762 118.813 33.8054 118.462 39.0874Z" fill="#828282"/>
<path d="M151.239 45.419C149.837 45.419 148.487 45.2986 147.191 45.0051C146.435 45.5943 146.021 46.3504 146.021 47.117C146.021 48.2279 146.728 48.7559 148.43 48.7559H157.282C162.676 48.7559 167.252 50.342 167.252 56.8447C167.252 64.2935 159.744 67.755 150.659 67.755C142.798 67.755 137.812 66.1731 137.812 61.1319C137.812 58.6081 139.809 57.0833 141.86 56.0865C139.691 55.1467 138.219 53.1551 138.219 50.4602C138.219 48.0484 139.689 45.4127 143.094 43.3599C140.454 41.7189 138.81 39.0811 138.81 35.4401C138.81 28.6375 144.557 25.5308 151.241 25.5308C152.891 25.5308 154.53 25.7061 155.998 26.1221H167.077V30.3988H163.151L162.623 30.9247C163.324 32.213 163.731 33.6829 163.731 35.4422C163.727 42.1941 157.924 45.419 151.239 45.419ZM146.021 56.6757C145.554 57.2649 145.026 58.3779 145.026 60.021C145.026 62.4265 146.49 63.8289 150.834 63.8289C155.402 63.8289 158.456 62.4265 158.456 59.3114C158.456 57.0896 157.104 56.6757 154.701 56.6757H146.021ZM151.239 30.3418C148.487 30.3418 146.906 32.044 146.906 35.4464C146.906 38.7917 148.49 40.5468 151.239 40.5468C154.059 40.5468 155.641 38.7938 155.641 35.4464C155.643 32.044 154.057 30.3418 151.239 30.3418Z" fill="#828282"/>
<path d="M195.927 26.1263C198.267 26.1263 198.626 27.4738 198.626 28.6987V51.8689L199.68 52.9206H202.258V57.1995H192.936C190.59 57.1995 190.239 55.8478 190.239 54.6165V53.6746H189.943C189.012 54.7327 186.131 57.7845 181.614 57.7845C174.64 57.7845 172.587 53.5606 172.587 48.399V31.4569L171.534 30.403H168.951V26.1263H178.805C181.147 26.1263 181.496 27.4738 181.496 28.6987V46.9966C181.496 48.7559 181.671 51.1635 185.071 51.1635C187.126 51.1635 188.767 50.2237 189.705 49.5774V31.459L188.649 30.4052H186.072V26.1285H195.927V26.1263Z" fill="#828282"/>
<path d="M218.155 52.9228H221.442V57.2016H204.609V52.9228H207.19L208.242 51.871V31.459L207.19 30.4052H204.609V26.1285H213.934C216.276 26.1285 216.624 27.4759 216.624 28.7008V30.2299H216.918C217.86 29.0577 220.791 25.5371 225.359 25.5371C226.47 25.5371 227.587 25.7124 227.587 25.7124V37.9744H222.31V33.8645L221.315 32.9247C219.499 33.2837 217.976 33.9849 217.148 34.4538V51.871L218.155 52.9228Z" fill="#828282"/>
<path d="M244.015 57.7909C236.095 57.7909 229.998 52.8046 229.998 41.6682C229.998 30.5214 236.099 25.533 244.015 25.533C251.934 25.533 258.023 30.5193 258.023 41.6682C258.025 52.8046 251.934 57.7909 244.015 57.7909ZM244.015 31.1106C240.091 31.1106 239.09 34.5109 239.09 41.6704C239.09 48.8235 240.088 52.2217 244.015 52.2217C247.941 52.2217 248.944 48.8193 248.944 41.6704C248.944 34.5087 247.943 31.1106 244.015 31.1106Z" fill="#828282"/>
<path d="M271.75 57.7908C265.539 57.7908 261.721 56.4392 261.721 56.4392V47.7612H266.597V51.6873L267.594 52.7432C268.821 52.9206 270.171 52.9819 271.752 52.9819C275.159 52.9819 276.27 51.455 276.27 49.2247C276.27 46.9417 275.624 45.8224 270.758 44.8298C263.486 43.3662 261.911 39.4929 261.911 35.4443C261.911 29.2351 266.481 25.5371 274.399 25.5371C279.446 25.5371 283.307 26.5339 283.307 26.5339V35.0324H278.447V31.4569L277.446 30.5213C276.509 30.4009 275.51 30.289 274.397 30.289C271.457 30.289 269.706 31.5731 269.706 33.4548C269.706 35.326 269.881 36.7389 274.276 37.6111C281.955 39.1951 284.711 42.0167 284.711 46.6967C284.709 54.2132 279.317 57.7908 271.75 57.7908Z" fill="#828282"/>
<path d="M299.142 52.9228H301.717L302.777 51.871V21.4906L301.717 20.4368H299.142V16.1537H316.785C325.996 16.1537 331.915 19.5561 331.915 26.8275C331.915 31.3429 329.628 34.099 325.704 35.6851V35.9153C330.69 37.5541 333.683 40.7242 333.683 46.059C333.683 53.7401 327.757 57.1974 318.549 57.1974H299.144V52.9228H299.142ZM312.27 22.0165V33.2795H316.437C320.483 33.2795 322.473 31.5182 322.473 27.704C322.473 23.8898 320.479 22.0144 316.437 22.0144L312.27 22.0165ZM312.27 39.1423V51.3388H318.078C322.124 51.3388 323.943 49.3473 323.943 45.1804C323.943 41.1339 322.124 39.1423 318.078 39.1423H312.27Z" fill="#828282"/>
<path d="M346.818 26.1264C349.16 26.1264 349.51 27.4738 349.51 28.6987V51.8689L350.505 52.9207H353.151V57.1995H336.965V52.9207H339.55L340.6 51.8689V31.4569L339.55 30.4031H336.965V26.1264H346.818ZM344.53 13.5138C347.869 13.5138 349.508 15.3322 349.508 18.2087C349.508 21.0852 347.869 22.9014 344.53 22.9014C341.189 22.9014 339.548 21.0852 339.548 18.2087C339.546 15.3322 341.187 13.5138 344.53 13.5138Z" fill="#828282"/>
<path d="M364.932 14.3923C367.279 14.3923 367.633 15.744 367.633 16.9752V51.871L368.628 52.9227H371.266V57.2015H355.088V52.9227H357.669L358.723 51.871V19.7292L357.669 18.6775H355.088V14.3923H364.932Z" fill="#828282"/>
<path d="M383.054 14.3923C385.403 14.3923 385.753 15.744 385.753 16.9752V29.1781C387.274 27.2985 390.389 25.535 393.375 25.535C399.474 25.535 404.575 30.817 404.575 41.9533C404.575 53.0938 399.474 57.7866 393.375 57.7866C389.918 57.7866 386.805 55.6176 385.403 53.6767H385.225V54.6186C385.225 55.852 384.872 57.1994 382.528 57.1994H373.2V52.9227H375.787L376.845 51.871V19.7292L375.787 18.6775H373.2V14.3923H383.054ZM390.214 32.1644C388.978 32.1644 387.276 32.515 385.753 33.6871V49.1128C387.274 50.4665 388.917 51.1043 390.214 51.1043C394.14 51.1043 395.489 48.4095 395.489 41.6682C395.487 34.9205 394.142 32.1644 390.214 32.1644Z" fill="#828282"/>
<path d="M436.886 57.2016H427.563C425.217 57.2016 424.871 55.8521 424.871 54.6208V53.6789H424.571C423.637 54.7391 420.759 57.7908 416.243 57.7908C409.5 57.7908 407.333 53.5036 407.333 48.4687C407.333 42.9586 411.377 39.7315 417.711 39.7315H424.338V36.91C424.338 33.5055 424.163 31.043 419.12 31.043C418.357 31.043 417.428 31.1021 416.484 31.2183L415.603 32.1011V36.1983H410.152V27.2288C410.152 27.2879 415.073 25.5287 422.284 25.5287C430.67 25.5287 433.249 30.0461 433.249 35.5013V51.8626L434.303 52.9143H436.883L436.886 57.2016ZM424.338 49.5775V44.4792H420.172C417.481 44.4792 416.245 45.6535 416.245 47.588C416.245 50.0463 417.067 51.1635 419.821 51.1635C421.76 51.1656 423.399 50.2216 424.338 49.5775Z" fill="#828282"/>
<path d="M453.014 57.7909C445.097 57.7909 439.006 52.8046 439.006 41.6682C439.006 30.5214 445.101 25.533 453.014 25.533C460.934 25.533 467.029 30.5193 467.029 41.6682C467.029 52.8046 460.934 57.7909 453.014 57.7909ZM453.014 31.1106C449.088 31.1106 448.091 34.5109 448.091 41.6704C448.091 48.8235 449.088 52.2217 453.014 52.2217C456.941 52.2217 457.935 48.8193 457.935 41.6704C457.935 34.5087 456.941 31.1106 453.014 31.1106Z" fill="#828282"/>
<path d="M30.0182 38.9649C37.9802 46.6841 41.0785 59.6958 42.4597 64.8236C43.2559 67.8226 46.3499 69.603 49.3446 68.7983C52.3499 67.9958 54.1303 64.906 53.3257 61.9091C51.9508 56.7771 48.1324 43.9702 51.1694 33.2965C53.8811 22.5424 63.594 13.3512 67.3406 9.60673C69.5412 7.40185 69.5412 3.84111 67.3406 1.6489C65.142 -0.549635 61.5813 -0.549635 59.387 1.6489C55.634 5.39973 46.4534 15.1126 35.693 17.8201C25.0129 20.855 12.2081 17.0387 7.08243 15.6596C4.07712 14.8613 0.993677 16.6395 0.19536 19.6343C-0.613516 22.6438 1.16263 25.7293 4.17005 26.534C9.30208 27.9025 22.2885 31.0008 30.0182 38.9649Z" fill="#DC0028"/>
</svg>
