<svg width="434" height="64" viewBox="0 0 434 64" fill="none" xmlns="http://www.w3.org/2000/svg">
<path d="M83.5607 53.6094C77.0877 53.6094 72.1918 52.1381 72.1918 52.1381V41.5842H77.2483V47.0796L78.2299 48.0572C79.6992 48.3315 81.4918 48.4921 83.5607 48.4921C88.0217 48.4921 89.3813 46.4233 89.3813 43.4297C89.3813 40.2715 88.1294 39.0255 83.6195 37.7756C75.8377 35.6558 72.3034 32.8758 72.3034 25.6426C72.3034 18.2468 78.2867 14.4324 86.5562 14.4324C92.3808 14.4324 96.8359 15.8508 96.8359 15.8508V25.9149H91.7793V20.8545L90.8487 19.9297C89.5968 19.7123 88.1843 19.5536 86.5503 19.5536C82.6928 19.5536 80.4574 21.3482 80.4574 24.1223C80.4574 26.9513 81.0549 28.2522 86.9833 29.8822C94.1146 31.8413 98.1348 34.782 98.1348 41.3647C98.1367 49.746 92.2123 53.6094 83.5607 53.6094Z" fill="white"/>
<path d="M124.25 40.0669H109.835C110.111 46.152 112.338 48.3855 117.612 48.3855C120.492 48.3855 122.783 47.5156 123.653 47.2491V51.6004C122.242 52.5761 119.464 53.6105 114.787 53.6105C107.768 53.6105 101.512 49.4747 101.512 39.248C101.512 28.696 107.17 23.6943 113.966 23.6943C120.551 23.6943 125.228 28.1534 125.228 35.3904V39.0873L124.25 40.0669ZM109.891 36.2603H117.395V34.8438C117.395 30.6532 116.527 28.6412 114.023 28.6412C111.467 28.6431 110.217 31.3605 109.891 36.2603Z" fill="white"/>
<path d="M140.298 42.1336C138.997 42.1336 137.745 42.0219 136.542 41.7496C135.841 42.2962 135.457 42.9976 135.457 43.7088C135.457 44.7393 136.113 45.2291 137.692 45.2291H145.903C150.907 45.2291 155.152 46.7004 155.152 52.7326C155.152 59.6425 148.187 62.8535 139.759 62.8535C132.467 62.8535 127.842 61.3861 127.842 56.7096C127.842 54.3685 129.695 52.954 131.597 52.0292C129.585 51.1574 128.22 49.31 128.22 46.8101C128.22 44.5727 129.583 42.1277 132.741 40.2234C130.293 38.7012 128.768 36.2542 128.768 32.8766C128.768 26.5662 134.099 23.6843 140.3 23.6843C141.83 23.6843 143.35 23.8469 144.712 24.2329H154.99V28.2002H151.348L150.858 28.688C151.508 29.8831 151.886 31.2466 151.886 32.8786C151.882 39.142 146.499 42.1336 140.298 42.1336ZM135.457 52.5758C135.024 53.1225 134.534 54.1549 134.534 55.6791C134.534 57.9106 135.892 59.2115 139.922 59.2115C144.159 59.2115 146.992 57.9106 146.992 55.0209C146.992 52.9598 145.738 52.5758 143.509 52.5758H135.457ZM140.298 28.1473C137.745 28.1473 136.278 29.7263 136.278 32.8825C136.278 35.9858 137.747 37.6139 140.298 37.6139C142.913 37.6139 144.381 35.9878 144.381 32.8825C144.383 29.7263 142.911 28.1473 140.298 28.1473Z" fill="white"/>
<path d="M181.751 24.2363C183.922 24.2363 184.255 25.4863 184.255 26.6226V48.1164L185.232 49.092H187.624V53.0612H178.977C176.8 53.0612 176.475 51.8074 176.475 50.6652V49.7914H176.201C175.337 50.773 172.664 53.6039 168.474 53.6039C162.005 53.6039 160.1 49.6856 160.1 44.8975V29.1812L159.123 28.2036H156.727V24.2363H165.868C168.041 24.2363 168.364 25.4863 168.364 26.6226V43.5966C168.364 45.2286 168.527 47.462 171.681 47.462C173.587 47.462 175.109 46.5902 175.979 45.9907V29.1832L175 28.2056H172.61V24.2383H181.751V24.2363Z" fill="white"/>
<path d="M202.371 49.0942H205.419V53.0634H189.805V49.0942H192.199L193.175 48.1185V29.1834L192.199 28.2058H189.805V24.2385H198.455C200.627 24.2385 200.95 25.4884 200.95 26.6247V28.0432H201.223C202.097 26.9558 204.816 23.6899 209.054 23.6899C210.084 23.6899 211.12 23.8525 211.12 23.8525V35.2273H206.225V31.4149L205.302 30.543C203.617 30.8761 202.204 31.5265 201.436 31.9615V48.1185L202.371 49.0942Z" fill="white"/>
<path d="M226.358 53.6095C219.012 53.6095 213.356 48.984 213.356 38.6534C213.356 28.313 219.016 23.6855 226.358 23.6855C233.705 23.6855 239.353 28.3111 239.353 38.6534C239.355 48.984 233.705 53.6095 226.358 53.6095ZM226.358 28.8597C222.718 28.8597 221.79 32.0139 221.79 38.6554C221.79 45.291 222.716 48.4433 226.358 48.4433C230 48.4433 230.931 45.2871 230.931 38.6554C230.931 32.0119 230.002 28.8597 226.358 28.8597Z" fill="white"/>
<path d="M252.088 53.61C246.326 53.61 242.784 52.3562 242.784 52.3562V44.306H247.308V47.9481L248.232 48.9277C249.371 49.0922 250.623 49.149 252.09 49.149C255.25 49.149 256.281 47.7326 256.281 45.6637C256.281 43.5459 255.681 42.5075 251.167 41.5867C244.422 40.229 242.96 36.636 242.96 32.8803C242.96 27.1204 247.2 23.6899 254.545 23.6899C259.227 23.6899 262.808 24.6147 262.808 24.6147V32.4983H258.3V29.1814L257.372 28.3135C256.502 28.2019 255.575 28.098 254.543 28.098C251.816 28.098 250.192 29.2892 250.192 31.0348C250.192 32.7706 250.354 34.0813 254.431 34.8904C261.555 36.3597 264.111 38.9772 264.111 43.3186C264.109 50.2912 259.108 53.61 252.088 53.61Z" fill="white"/>
<path d="M277.498 49.0943H279.886L280.87 48.1187V19.9364L279.886 18.9587H277.498V14.9856H293.865C302.409 14.9856 307.9 18.1418 307.9 24.8871C307.9 29.0758 305.778 31.6325 302.138 33.1038V33.3173C306.764 34.8376 309.54 37.7783 309.54 42.7271C309.54 49.8525 304.043 53.0596 295.501 53.0596H277.5V49.0943H277.498ZM289.676 20.4242V30.8723H293.542C297.295 30.8723 299.141 29.2384 299.141 25.7002C299.141 22.1619 297.291 20.4222 293.542 20.4222L289.676 20.4242ZM289.676 36.3109V47.625H295.064C298.818 47.625 300.504 45.7775 300.504 41.9121C300.504 38.1584 298.818 36.3109 295.064 36.3109H289.676Z" fill="white"/>
<path d="M321.724 24.2362C323.897 24.2362 324.222 25.4861 324.222 26.6224V48.1162L325.145 49.0918H327.6V53.0611H312.585V49.0918H314.983L315.956 48.1162V29.181L314.983 28.2034H312.585V24.2362H321.724ZM319.602 12.5361C322.7 12.5361 324.22 14.223 324.22 16.8913C324.22 19.5597 322.7 21.2445 319.602 21.2445C316.503 21.2445 314.981 19.5597 314.981 16.8913C314.979 14.223 316.501 12.5361 319.602 12.5361Z" fill="white"/>
<path d="M338.528 13.3516C340.704 13.3516 341.033 14.6054 341.033 15.7476V48.1186L341.956 49.0942H344.403V53.0634H329.396V49.0942H331.79L332.768 48.1186V18.3023L331.79 17.3267H329.396V13.3516H338.528Z" fill="white"/>
<path d="M355.339 13.3516C357.518 13.3516 357.843 14.6054 357.843 15.7476V27.0675C359.254 25.3239 362.143 23.688 364.914 23.688C370.572 23.688 375.303 28.5878 375.303 38.9184C375.303 49.2529 370.572 53.6061 364.914 53.6061C361.707 53.6061 358.819 51.5941 357.518 49.7936H357.353V50.6674C357.353 51.8116 357.026 53.0615 354.852 53.0615H346.198V49.0942H348.598L349.579 48.1186V18.3023L348.598 17.3267H346.198V13.3516H355.339ZM361.981 29.8378C360.835 29.8378 359.256 30.163 357.843 31.2503V45.5599C359.254 46.8157 360.778 47.4074 361.981 47.4074C365.623 47.4074 366.875 44.9075 366.875 38.6539C366.873 32.3945 365.625 29.8378 361.981 29.8378Z" fill="white"/>
<path d="M405.275 53.0629H396.628C394.451 53.0629 394.13 51.8111 394.13 50.6689V49.7951H393.852C392.986 50.7786 390.315 53.6096 386.127 53.6096C379.871 53.6096 377.861 49.6325 377.861 44.9619C377.861 39.8505 381.613 36.8569 387.488 36.8569H393.636V34.2395C393.636 31.0813 393.474 28.797 388.795 28.797C388.088 28.797 387.226 28.8518 386.35 28.9596L385.533 29.7785V33.5792H380.477V25.2588C380.477 25.3136 385.041 23.6816 391.73 23.6816C399.51 23.6816 401.902 27.8723 401.902 32.9327V48.1102L402.879 49.0859H405.273L405.275 53.0629ZM393.636 45.9904V41.2611H389.771C387.275 41.2611 386.129 42.3503 386.129 44.1449C386.129 46.4254 386.891 47.4618 389.446 47.4618C391.244 47.4637 392.764 46.588 393.636 45.9904Z" fill="white"/>
<path d="M420.238 53.6095C412.893 53.6095 407.243 48.984 407.243 38.6534C407.243 28.313 412.897 23.6855 420.238 23.6855C427.585 23.6855 433.239 28.3111 433.239 38.6534C433.239 48.984 427.585 53.6095 420.238 53.6095ZM420.238 28.8597C416.596 28.8597 415.671 32.0139 415.671 38.6554C415.671 45.291 416.596 48.4433 420.238 48.4433C423.88 48.4433 424.803 45.2871 424.803 38.6554C424.803 32.0119 423.88 28.8597 420.238 28.8597Z" fill="white"/>
<path d="M27.8463 36.1457C35.2323 43.3064 38.1064 55.3767 39.3876 60.1335C40.1262 62.9155 42.9964 64.5671 45.7744 63.8206C48.5623 63.0762 50.2139 60.2099 49.4674 57.4299C48.192 52.6692 44.6499 40.7889 47.4671 30.8874C49.9827 20.9114 58.9928 12.3852 62.4683 8.91166C64.5098 6.86632 64.5098 3.5632 62.4683 1.5296C60.4288 -0.509868 57.1257 -0.509868 55.0902 1.5296C51.6088 5.00905 43.0924 14.0192 33.1105 16.5308C23.2031 19.3461 11.3248 15.8059 6.57 14.5266C3.78213 13.786 0.921782 15.4356 0.181225 18.2137C-0.569127 21.0055 1.07851 23.8678 3.86834 24.6142C8.62906 25.8837 20.6758 28.7578 27.8463 36.1457Z" fill="white"/>
</svg>
