<svg width="413" height="44" viewBox="0 0 413 44" fill="none" xmlns="http://www.w3.org/2000/svg">
<path d="M0 3.11304H28.7751V6.45816H16.0266V40.9361H12.6988V6.45816H0V3.11304Z" fill="white"/>
<path d="M53.7916 6.45816H42.9968V24.7404H54.3877C60.1493 24.7404 64.4705 21.9749 64.4705 15.7318C64.4705 9.48865 60.199 6.45816 53.7916 6.45816ZM39.6028 3.11304H53.7916C62.699 3.11304 67.9143 7.40209 67.9143 15.5993C67.9143 22.0246 64.4209 25.9328 59.1394 27.39V27.6384L68.7586 40.0585V40.9361H65.1328L55.0996 28.069H42.9968V40.9361H39.6193V3.11304H39.6028Z" fill="white"/>
<path d="M84.4046 3.11304H81.0271V40.9361H84.4046V3.11304Z" fill="white"/>
<path d="M113.345 6.45816H102.55V25.2538H113.345C119.819 25.2538 124.09 22.4717 124.09 15.7318C124.09 9.35617 119.752 6.45816 113.345 6.45816ZM99.1729 3.11304H113.411C122.253 3.11304 127.468 7.40209 127.468 15.5993C127.468 23.7965 122.004 28.5824 113.229 28.5824H102.55V40.9361H99.1729V3.11304Z" fill="white"/>
<path d="M138.793 40.9361V3.11304H142.17V37.591H163.412V40.9361H138.793Z" fill="white"/>
<path d="M197.203 23.9787H177.518V37.591H199.886V40.9361H174.124V3.11304H199.886V6.45816H177.518V20.6335H197.203V23.9787Z" fill="white"/>
<path d="M286.923 6.45816H276.128V25.2538H286.923C293.396 25.2538 297.668 22.4717 297.668 15.7318C297.668 9.35617 293.33 6.45816 286.923 6.45816ZM272.75 3.11304H286.989C295.83 3.11304 301.045 7.40209 301.045 15.5993C301.045 23.7965 295.582 28.5824 286.807 28.5824H276.128V40.9361H272.75V3.11304Z" fill="white"/>
<path d="M312.37 40.9361V3.11304H315.747V37.591H336.989V40.9361H312.37Z" fill="white"/>
<path d="M345.665 25.1712V3.11328H349.043V25.1712C349.043 32.9213 352.9 38.4027 360.384 38.4027C367.867 38.4027 371.775 32.9213 371.775 25.1712V3.11328H375.102V25.1712C375.102 35.1238 369.821 41.8141 360.384 41.8141C350.947 41.8141 345.665 35.1238 345.665 25.1712Z" fill="white"/>
<path d="M388.612 34.6933C388.612 34.6933 392.354 38.4193 399.473 38.4193C406.593 38.4193 409.556 35.5875 409.556 31.3647C409.556 27.1419 406.477 25.3203 399.225 23.1675C391.278 20.7001 386.824 18.2492 386.824 12.3207C386.824 5.96165 391.924 2.30188 399.821 2.30188C408.364 2.30188 412.156 5.82917 412.156 5.82917L410.318 8.79341C410.318 8.79341 406.692 5.69669 399.821 5.69669C394.473 5.69669 390.268 7.96541 390.268 12.3207C390.268 16.0467 393.414 17.6199 400.599 19.7562C409.209 22.2733 413 25.3038 413 31.2985C413 37.2932 408.96 41.8307 399.523 41.8307C390.798 41.8307 386.708 37.4754 386.708 37.4754L388.612 34.6933Z" fill="white"/>
<path d="M237.767 16.2619L246.972 33.236L260.218 41.3835L237.734 0L237.767 16.2619Z" fill="white"/>
<path d="M225.118 33.2194L234.323 16.2785L234.356 0L211.873 41.3835L225.118 33.2194Z" fill="white"/>
<path d="M244.439 35.8855H227.634L214.373 43.9999H257.717L244.439 35.8855Z" fill="white"/>
</svg>
