<svg width="235" height="175" viewBox="0 0 235 175" fill="none" xmlns="http://www.w3.org/2000/svg">
<path d="M217.446 54.0772C217.446 54.0772 205.447 44.7144 188.361 45.9403C188.361 45.9403 160.089 44.7144 148.903 73.2012L134.146 111.235L129.334 65.7539L127.557 48.9897H83.6236L59.4275 128.52C59.4275 128.52 52.5165 146.004 41.7286 139.706C41.7286 139.706 35.6297 137.27 35.6297 126.482V48.9897H0.0174257V126.482C0.0174257 126.482 -1.20847 154.555 16.9042 166.753C16.9042 166.753 28.9026 176.115 45.9886 174.889C45.9886 174.889 74.2608 176.115 85.4472 147.629L100.204 109.595L106.793 171.84H150.726L174.922 92.3099C174.922 92.3099 181.833 74.8255 192.621 81.1236C192.621 81.1236 198.72 83.56 198.72 94.3479V171.84H234.317V94.3479C234.317 94.3479 235.543 66.2749 217.43 54.0772H217.446Z" fill="#001C25"/>
<path d="M100.202 35.597V0L55.0431 0V35.597H100.202Z" fill="#BFFF8C"/>
</svg>
