<svg width="555" height="175" viewBox="0 0 555 175" fill="none" xmlns="http://www.w3.org/2000/svg">
<path d="M356.845 174.292C320.374 174.292 293.68 147.353 293.68 110.653C293.68 73.9522 320.374 46.7679 356.845 46.7679C388.074 46.7679 412.378 66.796 417.619 95.8651H386.634C382.343 83.9433 370.667 75.837 356.6 75.837C337.767 75.837 323.945 90.6091 323.945 110.637C323.945 130.665 337.767 145.437 356.6 145.437C370.421 145.437 382.343 137.331 386.634 125.409H417.619C412.133 154.494 388.059 174.277 356.845 174.277V174.292Z" fill="#001C25"/>
<path d="M425.924 110.652C425.924 73.2319 453.093 46.7678 490.284 46.7678C527.474 46.7678 554.643 73.2319 554.643 110.652C554.643 148.073 527.704 174.292 490.284 174.292C452.863 174.292 425.924 148.073 425.924 110.652ZM524.364 110.652C524.364 90.3944 510.542 75.8522 490.284 75.8522C470.026 75.8522 456.204 90.3944 456.204 110.652C456.204 130.91 470.271 145.453 490.284 145.453C510.296 145.453 524.364 130.68 524.364 110.652Z" fill="#001C25"/>
<path d="M217.446 54.0772C217.446 54.0772 205.447 44.7144 188.361 45.9403C188.361 45.9403 160.089 44.7144 148.903 73.2012L134.146 111.235L129.334 65.7539L127.557 48.9897H83.6236L59.4275 128.52C59.4275 128.52 52.5165 146.004 41.7286 139.706C41.7286 139.706 35.6297 137.27 35.6297 126.482V48.9897H0.0174257V126.482C0.0174257 126.482 -1.20847 154.555 16.9042 166.753C16.9042 166.753 28.9026 176.115 45.9886 174.889C45.9886 174.889 74.2608 176.115 85.4472 147.629L100.204 109.595L106.793 171.84H150.726L174.922 92.3099C174.922 92.3099 181.833 74.8255 192.621 81.1236C192.621 81.1236 198.72 83.56 198.72 94.3479V171.84H234.317V94.3479C234.317 94.3479 235.543 66.2749 217.43 54.0772H217.446Z" fill="#001C25"/>
<path d="M283.275 49.0359H247.969V171.84H283.275V49.0359Z" fill="#001C25"/>
<path d="M100.203 35.5971V7.62939e-05L55.0436 7.62939e-05V35.5971H100.203Z" fill="#BFFF8C"/>
</svg>
