<svg width="357" height="44" viewBox="0 0 357 44" fill="none" xmlns="http://www.w3.org/2000/svg">
<path d="M24.3414 5.74899L33.9871 0L43.7726 5.74899L33.9871 11.498L24.3414 5.74899Z" fill="white"/>
<path d="M0.489258 5.74899L10.135 0L19.903 5.74899L10.135 11.498L0.489258 5.74899Z" fill="white"/>
<path d="M9.64573 13.193L0 7.42651V25.2327C0 29.4789 0.489276 32.4844 2.39396 34.8434C4.29864 37.2199 6.58775 39.4741 9.1215 40.8545C11.6553 42.235 13.4376 42.7243 13.4376 42.7243C13.4376 42.7243 9.7331 40.2255 9.7331 36.6083C9.7331 32.9912 9.64573 13.1755 9.64573 13.1755" fill="white"/>
<path d="M34.3716 13.1931L44.0173 7.44409V25.2502C44.0173 29.4965 43.5455 32.502 41.6408 34.861C39.7361 37.2375 37.447 39.4917 34.9133 40.8721C32.3795 42.2526 30.5972 42.7419 30.5972 42.7419C30.5972 42.7419 34.3891 40.2431 34.3891 36.6259C34.3891 33.0088 34.3891 13.1931 34.3891 13.1931" fill="white"/>
<path d="M22.9784 33.7949L32.6242 28.0459V34.3541C32.6242 38.478 30.8593 41.2214 28.308 42.4795C25.7743 43.7377 22.9435 43.9823 22.9435 43.9823L22.9784 33.8124V33.7949Z" fill="white"/>
<path d="M32.7293 13.8745L23.0836 19.6235V31.6457L32.7293 25.8967V13.8745Z" fill="white"/>
<path d="M21.0386 19.6235L11.3929 13.8745V34.3717C11.3929 38.4956 13.1752 41.239 15.709 42.4972C18.2427 43.7553 21.0736 43.9999 21.0736 43.9999L21.0386 19.641V19.6235Z" fill="white"/>
<path d="M12.4067 12.4941L22.0699 6.74512L31.8379 12.4941L22.0699 18.2431L12.4067 12.4941Z" fill="white"/>
<path d="M87.4931 42.0428C74.5623 42.0428 68.2541 37.0102 68.2541 26.7704V9.52341C68.2541 5.97616 67.2406 3.80936 64.934 2.84828H81.0976C78.6687 3.93168 77.8125 5.92373 77.8125 9.52341V26.4733C77.8125 31.9952 81.1675 35.0182 87.4931 35.0182C93.8188 35.0182 97.1039 32.0651 97.1039 26.4733V9.52341C97.1039 6.20332 96.5797 4.14137 93.8363 2.83081H110.035C107.816 3.73947 106.645 6.06353 106.645 9.52341V26.7879C106.645 37.0277 100.424 42.0603 87.4931 42.0603" fill="white"/>
<path d="M124.468 34.4241C124.556 38.0063 125.254 39.9634 127.823 41.1516H112.481C114.822 40.0857 115.731 38.0063 115.731 34.4241V9.52341C115.731 5.97616 114.822 3.86178 112.481 2.83081H131.51C131.231 3.30261 131.108 3.59967 131.108 3.82684C131.108 4.08895 131.301 4.57822 131.633 5.24224L146.8 34.1095L146.678 9.52341C146.678 5.97616 145.542 3.80936 143.288 2.83081H158.246C155.17 4.33359 155.1 6.50038 155.1 9.43604V37.8665C155.1 39.212 155.223 40.2429 156.009 41.1691H140.387C140.702 40.6274 140.859 40.2429 140.859 39.9808C140.859 39.7537 140.649 39.3518 140.335 38.7052L123.839 8.89434L124.468 34.4415V34.4241Z" fill="white"/>
<path d="M173.396 9.52341V34.4241C173.396 38.0063 174.392 40.1031 176.733 41.1516H160.587C162.964 40.1031 163.855 38.0063 163.855 34.4241V9.52341C163.855 5.97616 162.964 3.86178 160.587 2.83081H176.733C174.392 3.87926 173.396 5.97616 173.396 9.52341Z" fill="white"/>
<path d="M193.316 36.5908V9.41856H191.412C186.047 9.41856 181.556 10.0651 177.17 12.6862C178.498 7.88084 179.599 5.22477 179.599 4.38601C179.599 3.91421 179.337 3.44241 178.935 2.83081H217.343C216.889 3.44241 216.714 3.91421 216.714 4.38601C216.714 5.15487 217.745 7.81094 219.108 12.6862C214.74 10.0651 210.249 9.41856 204.867 9.41856H202.857V34.4241C202.857 37.5869 204.22 40.3653 206.387 41.1516H190.171C192.128 40.2954 193.316 38.3033 193.316 36.5908Z" fill="white"/>
<path d="M222.848 34.5637V9.41846C222.848 5.90615 221.869 3.86168 219.563 2.81323H260.347C259.91 3.42483 259.718 3.9141 259.718 4.36843C259.718 5.13729 260.749 7.79336 262.13 12.6686C257.744 10.0475 253.183 9.40098 247.888 9.40098H232.406V18.3303H249.513C251.82 18.3303 253.445 17.8235 254.721 17.3168L251.47 22.7163C250.614 24.1317 249.181 24.9005 247.416 24.9005H232.389V34.5463H248.709C255.192 34.5463 260.33 32.9736 263.877 29.9855C261.71 35.4549 260.242 38.4954 260.242 39.4565C260.242 39.9458 260.487 40.47 260.941 41.134H219.563C221.869 40.1555 222.848 38.0411 222.848 34.5288" fill="white"/>
<path d="M302.11 40.7498C299.21 40.7498 294.492 42.0428 288.446 42.0428C274.571 42.0428 266.603 34.8959 266.603 22.5592C266.603 10.2224 275.689 1.9397 290.298 1.9397C296.938 1.9397 301.569 3.4949 304.12 3.4949C304.784 3.4949 305.43 3.30268 306.287 3.09299L302.809 12.6339C299.035 10.1176 295.103 8.9643 290.665 8.9643C282.102 8.9643 276.79 14.4337 276.79 22.0874C276.79 30.4924 281.386 35.0008 290.088 35.0008C294.981 35.0008 299.716 33.5155 304.994 30.9468V41.3089C303.893 40.9245 302.967 40.7148 302.128 40.7148" fill="white"/>
<path d="M346.495 21.4409C346.495 13.4902 342.004 8.96441 334.263 8.96441C325.753 8.96441 321.017 13.9271 321.017 22.6641C321.017 30.51 325.526 35.0183 333.214 35.0183C341.637 35.0183 346.495 30.0906 346.495 21.4409ZM333.774 42.1129C319.2 42.1129 310.952 34.4242 310.952 22.4894C310.952 10.5546 319.585 1.95728 333.774 1.95728C347.963 1.95728 356.647 9.43621 356.647 22.0176C356.647 33.6379 347.963 42.1129 333.774 42.1129Z" fill="white"/>
</svg>
